<svg xmlns="http://www.w3.org/2000/svg" width="41.497" height="60" viewBox="0 0 41.497 60">
  <path id="Icon_simple-googlemaps" data-name="Icon simple-googlemaps" d="M45.117,12c3.03,6.52,2.343,14.195-1.013,20.432-2.752,5.117-6.86,9.35-10.245,14.035a37.536,37.536,0,0,0-4.172,6.817c-.353.813-.658,1.645-.958,2.48s-.56,1.682-.85,2.52c-.272.785-.59,1.71-1.568,1.717h-.017c-1.165,0-1.448-1.325-1.737-2.217A37.294,37.294,0,0,0,22.01,51.47a53.175,53.175,0,0,0-4.475-6.677ZM17.662,19.263,7.765,31.03c1.81,3.85,4.553,7.157,7.178,10.45.617.775,1.235,1.555,1.843,2.34l12.46-14.812-.072.025a8.862,8.862,0,0,1-10.98-4.967,8.443,8.443,0,0,1-.522-1.79,8.858,8.858,0,0,1-.01-3l0-.017ZM10.03,7.873l-.008.01A22.217,22.217,0,0,0,7.23,29.807L19.192,15.585l-.145-.125L10.03,7.873ZM32.952,1.09,23.357,12.5q.033-.014.068-.025a8.862,8.862,0,0,1,10.55,4.065,8.011,8.011,0,0,1,.943,2.612,8.863,8.863,0,0,1,.03,3.05l-.007.04,9.59-11.4A20.955,20.955,0,0,0,32.975,1.1l-.022-.008ZM19.965,14.67,31.7.713l-.118-.03A20.775,20.775,0,0,0,26.265,0,21.1,21.1,0,0,0,10.842,6.915l-.04.045,9.163,7.71Z" transform="translate(-5.55)" fill="#019289"/>
</svg>
