<svg xmlns="http://www.w3.org/2000/svg" width="64.975" height="53.707" viewBox="0 0 64.975 53.707">
  <g id="Icon_feather-users" data-name="Icon feather-users" transform="translate(1.5 1.5)">
    <path id="Tracciato_66" data-name="Tracciato 66" d="M46.573,39.4V33.768A11.268,11.268,0,0,0,35.3,22.5H12.768A11.268,11.268,0,0,0,1.5,33.768V39.4" transform="translate(-1.5 11.305)" fill="none" stroke="#019289" stroke-linecap="round" stroke-linejoin="round" stroke-width="3"/>
    <path id="Tracciato_67" data-name="Tracciato 67" d="M30.037,15.768A11.268,11.268,0,1,1,18.768,4.5,11.268,11.268,0,0,1,30.037,15.768Z" transform="translate(3.768 -4.5)" fill="none" stroke="#019289" stroke-linecap="round" stroke-linejoin="round" stroke-width="3"/>
    <path id="Tracciato_68" data-name="Tracciato 68" d="M43.719,55.036V49.4a11.268,11.268,0,0,0-8.451-10.9M24,4.7a11.268,11.268,0,0,1,0,21.832" transform="translate(18.256 -4.329)" fill="none" stroke="#019289" stroke-linecap="round" stroke-linejoin="round" stroke-width="3"/>
  </g>
</svg>
