<svg xmlns="http://www.w3.org/2000/svg" width="63.924" height="56.899" viewBox="0 0 63.924 56.899">
  <path id="Icon_core-map" data-name="Icon core-map" d="M62.714,8.877,42.889,3.332l-19.883,5.6L4.515,3.687A2.663,2.663,0,0,0,1.125,6.25V51.609a3.209,3.209,0,0,0,2.324,3.075L23,60.23l19.892-5.6,18.775,5.252a2.663,2.663,0,0,0,3.381-2.566V11.955a3.207,3.207,0,0,0-2.335-3.078ZM20.7,55.148,5.387,50.8V8.364L20.7,12.709ZM40.76,50.8l-15.8,4.45V12.808l15.8-4.45Zm20.027,4.407L45.021,50.8V8.353l15.766,4.41Z" transform="translate(-1.125 -3.332)" fill="#019289"/>
</svg>
