<svg xmlns="http://www.w3.org/2000/svg" width="35.918" height="45.425" viewBox="0 0 35.918 45.425">
  <path id="Icon_core-euro" data-name="Icon core-euro" d="M35.307,10.413H43.23V6.188H35.307a22.75,22.75,0,0,0-21.286,14.79H7.313V25.2H12.9a22.736,22.736,0,0,0,0,7.395H7.313v4.226h6.709a22.75,22.75,0,0,0,21.286,14.79h7.923V47.387H35.307a18.51,18.51,0,0,1-16.7-10.564H39V32.6H17.192a18.574,18.574,0,0,1,0-7.395H39V20.977h-20.4a18.51,18.51,0,0,1,16.7-10.564Z" transform="translate(-7.313 -6.188)" fill="#019289"/>
</svg>
