<svg xmlns="http://www.w3.org/2000/svg" width="59.341" height="48.073" viewBox="0 0 59.341 48.073">
  <g id="Icon_akar-credit-card" data-name="Icon akar-credit-card" transform="translate(1.5 1.5)">
    <path id="Tracciato_69" data-name="Tracciato 69" d="M8.634,6H53.707a5.634,5.634,0,0,1,5.634,5.634v33.8a5.634,5.634,0,0,1-5.634,5.634H8.634A5.634,5.634,0,0,1,3,45.439v-33.8A5.634,5.634,0,0,1,8.634,6Z" transform="translate(-3 -6)" fill="none" stroke="#019289" stroke-linecap="round" stroke-linejoin="round" stroke-width="3"/>
    <path id="Tracciato_70" data-name="Tracciato 70" d="M24.585,16.362A7.871,7.871,0,0,0,18.548,13.5,8.258,8.258,0,0,0,10.5,21.951,8.258,8.258,0,0,0,18.548,30.4a7.866,7.866,0,0,0,6.037-2.862m14.085-5.589A8.258,8.258,0,0,1,30.622,30.4a8.257,8.257,0,0,1-8.048-8.451A8.257,8.257,0,0,1,30.622,13.5,8.258,8.258,0,0,1,38.671,21.951Z" transform="translate(3.585 0.585)" fill="none" stroke="#019289" stroke-linecap="round" stroke-linejoin="round" stroke-width="3"/>
  </g>
</svg>
