<svg xmlns="http://www.w3.org/2000/svg" width="435.488" height="398.596" viewBox="0 0 435.488 398.596">
  <g id="uccelli-dx" transform="translate(-338 -1155.452)">
    <path id="Tracciato_1" data-name="Tracciato 1" d="M78.732,21.342c-5.981,11.122-5.386,23.267-6.005,35.165A38.762,38.762,0,0,1,70.9,67.514c-2.14,6.112-1.078,8.508,4.836,11.35,2.106,1.012,4.209,1.936,5.435,4.076,1.246,2.178.788,3.225-1.652,3.5a12.67,12.67,0,0,1-8.982-1.91c-1.027,2.322-.488,4.284-.363,6.2a28.294,28.294,0,0,1,.363,3.858c-.245,3.276-1.008,3.588-4.039,2.082-4.522-2.249-8.5-5.145-10.235-10.07-2.5-7.107-7.794-9.539-14.785-9.565-1.085,0-2.28.326-3.177-.412a1.122,1.122,0,0,1,.518-1.577,24.446,24.446,0,0,1,14.59-4.593c2.593.084,3.392-.546,3.3-3.175a40.184,40.184,0,0,0-.93-7.289,19.08,19.08,0,0,1,.378-9.823A75,75,0,0,1,65.9,29.025c2.58-3.781,5.762-6.847,10.351-8.086a2.511,2.511,0,0,1,2.484.4" transform="translate(371.219 1173.544)" fill="#009289"/>
    <path id="Tracciato_2" data-name="Tracciato 2" d="M74.492,188.853c1.308-2.138,3.506-2.546,5.552-2.967a43.607,43.607,0,0,1,8.164-.924c3.07-.049,3.779-.8,3.863-3.912a34.073,34.073,0,0,0-.831-7.73c-2.395-11.788,2.245-21.46,9.315-30.365a6.015,6.015,0,0,1,.956-.877c.466-.378,1.035-.668,1.547-.243a1.509,1.509,0,0,1,.4,1.141,18.057,18.057,0,0,1-.473,2.552,40.084,40.084,0,0,0,1.485,23.007,24.324,24.324,0,0,1,1.418,11.878c-.348,2.426-.47,4.888-.653,7.335a3.5,3.5,0,0,0,3.01,4.071c1.549.344,3.111.636,4.679.887a6.707,6.707,0,0,1,5.317,4.57c1.338,3.369-.593,5.743-4.219,5.178-1.985-.311-3.923-.924-5.878-1.416-4.024-1.014-4.986-.094-4.136,4.022.174.846.55,1.65.694,2.5.479,2.827-.511,3.771-3.347,3.109a12.027,12.027,0,0,1-7.908-5.609,45.2,45.2,0,0,1-2.95-5.773,12.925,12.925,0,0,0-9.148-7.848c-2.286-.632-4.885-.66-6.86-2.585" transform="translate(402.866 1278.775)" fill="#009289"/>
    <path id="Tracciato_5" data-name="Tracciato 5" d="M140.157,48.318c5.5-3.805,10.353-7.066,16.627-7.115a7.227,7.227,0,0,0,1.723-.052c1.306-.335,1.583-1.145.776-2.236a12.522,12.522,0,0,0-3.579-3.105,13.548,13.548,0,0,1-3.1-2.353c6.224-1.44,12.1-1.021,17.331,3.059a16.412,16.412,0,0,1,5.045,5.867,4.12,4.12,0,0,0,4.43,2.66,22.116,22.116,0,0,1,4.325.108,3.763,3.763,0,0,1,3.517,3.757c-.181,2.153-1.779,2.857-3.652,2.918-2.309.075-4.623-.051-6.933-.037-4.877.03-5.474.505-5.5,5.515-.026,5.921.116,11.846.361,17.761A29.517,29.517,0,0,1,169.2,88.153a8.1,8.1,0,0,1-2.11,3.236c-.939.771-1.961.87-2.269-.572a32.824,32.824,0,0,1-.563-4.714c-.165-2.5-.552-4.958-2.309-6.838-3.029-3.24-4.046-7.247-4.679-11.423-.369-2.425-.709-4.866-.846-7.311a6.493,6.493,0,0,0-3.377-5.663c-1.876-1.093-3.7-2.164-4.683-4.318-.507-1.121-1.822-1.259-3.021-1.332a12.23,12.23,0,0,1-5.186-.9" transform="translate(460.046 1183.928)" fill="#009289"/>
    <path id="Tracciato_6" data-name="Tracciato 6" d="M33.9,117.977c-1.253-.088-1.682-.915-2.131-1.607-4.705-7.29-8.862-14.843-10.98-23.349-1.339-5.38-2.02-10.723,1.547-16.1C14.65,75.742,6.493,78.721,0,72.027a12.379,12.379,0,0,0,7.93-3.053c5.139-3.923,10.626-4.827,16.639-2.262,2.114.9,4.312,1.6,6.432,2.494,2.668,1.122,5.3,2.15,8.323,1.828a5.141,5.141,0,0,1,4.93,2.127c1.36,1.884.915,3.3-1.3,3.824a18.361,18.361,0,0,1-2.58.223c-3.12.275-3.433.528-2.986,3.721.659,4.705,1.684,9.35,1.85,14.13a46.882,46.882,0,0,1-2.907,18.659c-.6,1.558-1.057,3.283-2.428,4.26" transform="translate(338 1212.283)" fill="#009289"/>
    <path id="Tracciato_8" data-name="Tracciato 8" d="M245.339,135.117c-1.7-.677-1.68-2.191-2.026-3.337a40.426,40.426,0,0,0-7.376-14.536,19.9,19.9,0,0,1-4.226-9.388c-1.555-9.245-8.119-12.123-16.392-13.417,1.946-2.623,4.907-2.814,7.558-3.648.89-.281,2.275.129,2.539-1.128.284-1.351-.984-1.962-1.884-2.632a18.4,18.4,0,0,0-4.335-1.9,27.825,27.825,0,0,1-8.549-4.956c-.419-.382-.874-.883-.423-1.476a1.556,1.556,0,0,1,1.048-.539c8.6-.307,16.657,1.186,23.28,7.242.851.778,1.631,1.631,2.451,2.445,3.538,3.513,7.444,6.327,12.575,7.06,1.356.195,3.033.509,3.012,2.466-.019,1.738-1.351,2.43-2.772,2.9-.677.223-1.414.258-2.107.44-2.685.705-3.826,2.035-4.091,4.845a19.2,19.2,0,0,0,.52,5.577c1.237,6.22,2.576,12.433,2.43,18.824-.041,1.777.21,3.7-1.231,5.158" transform="translate(520.897 1223.481)" fill="#009289"/>
    <path id="Tracciato_9" data-name="Tracciato 9" d="M47.654,188.517c1.152,0,2.31-.065,3.459.011,5.5.37,10.022,2.454,12.85,7.463.565,1,1.336,1.891,1.878,2.9,2.1,3.934,5.143,6.028,9.8,5.517,1.493-.163,3.695-.348,4.063,1.5.417,2.092-1.9,2.077-3.281,2.569-4.907,1.744-5,1.82-5.089,7.081-.075,4.471-.1,8.942-.153,13.413a15.376,15.376,0,0,1-.12,2.159c-.2,1.257-.161,2.829-1.534,3.337-1.691.627-2.539-.905-3.455-1.97-4.628-5.377-6.417-11.821-6.924-18.715-.256-3.489-.195-3.566-3.622-3.7a31.842,31.842,0,0,1-10.884-2.5c-1.078-.44-2.38-.851-2.565-2.073-.2-1.308,1.1-1.884,2.054-2.5,1.455-.932,3.012-1.721,4.4-2.746,1.891-1.4,1.873-2.252.011-3.644-1.5-1.119-3.135-2.05-4.619-3.186a9.018,9.018,0,0,1-2.041-2.213c-1.085-1.661-.574-2.589,1.45-2.86a6.667,6.667,0,0,1,.864-.043c1.152,0,2.307,0,3.461,0v.2" transform="translate(373.983 1319.436)" fill="#009289"/>
    <path id="Tracciato_11" data-name="Tracciato 11" d="M23.873,28.155c-6-8.787-4.084-16.369,1.313-23.366A12.006,12.006,0,0,1,36.779.127a1.262,1.262,0,0,1-1.068,1.457c-4.213,1.338-4.35,4.946-3.087,8.525a42.191,42.191,0,0,0,4.032,8.117c1.976,3.193,2.514,6.3.683,9.784-1.175,2.232-.851,2.561,1.766,2.733,1.439.094,2.883.112,4.318.232a4.675,4.675,0,0,1,3.833,2.475c1.354,2.391.468,4.29-2.266,4.656a15.7,15.7,0,0,1-7.64-.992,14.087,14.087,0,0,0-9.294-.393A15.111,15.111,0,0,1,15.232,34.8c-3.165-1.972-5.943-4.542-10.224-6.146,6.4-2.159,12.145-2.028,18.865-.5" transform="translate(342.361 1155.452)" fill="#009289"/>
    <path id="Tracciato_13" data-name="Tracciato 13" d="M105.279,102.6c5.483.135,9.056-3.059,14.094-3.878a10.578,10.578,0,0,1-2-7.835,6.42,6.42,0,0,0-4.389-7.126c-1.147-.462-2.5-.784-3.233-2,6.117-3.193,14.79-.765,18.412,5.145,1.932,3.154,2.572,6.692,3.042,10.286.559,4.271.9,4.6,5.319,5.242a7.016,7.016,0,0,1,4.282,1.837,2.858,2.858,0,0,1,.7,3.182,2.039,2.039,0,0,1-2.518,1.2c-4.189-1.16-7.887.569-11.737,1.641-4.207,1.173-8.254,1.265-11.6-2.359A8.367,8.367,0,0,0,111,105.805a10.826,10.826,0,0,1-5.719-3.2" transform="translate(429.675 1225.413)" fill="#009289"/>
  </g>
</svg>
