<svg xmlns="http://www.w3.org/2000/svg" width="541.167" height="495.323" viewBox="0 0 541.167 495.323">
  <g id="uccelli-dx" transform="translate(-338 -1155.452)">
    <path id="Tracciato_1" data-name="Tracciato 1" d="M88.58,21.478c-7.432,13.821-6.693,28.913-7.462,43.7a48.169,48.169,0,0,1-2.276,13.679c-2.66,7.595-1.339,10.573,6.009,14.1,2.618,1.258,5.231,2.406,6.753,5.066,1.548,2.706.979,4.008-2.053,4.352A15.745,15.745,0,0,1,78.391,100c-1.276,2.885-.607,5.324-.451,7.7a35.158,35.158,0,0,1,.451,4.794c-.3,4.071-1.253,4.459-5.019,2.587-5.619-2.794-10.564-6.393-12.719-12.514-3.111-8.832-9.685-11.854-18.373-11.886-1.348,0-2.834.4-3.947-.511a1.4,1.4,0,0,1,.644-1.96c5.484-3.662,11.415-5.921,18.131-5.707,3.222.1,4.215-.679,4.1-3.945A49.936,49.936,0,0,0,60.051,69.5a23.71,23.71,0,0,1,.47-12.207,93.2,93.2,0,0,1,12.11-26.27c3.206-4.7,7.16-8.509,12.863-10.048a3.12,3.12,0,0,1,3.087.5" transform="translate(388.538 1182.976)" fill="#009289"/>
    <path id="Tracciato_2" data-name="Tracciato 2" d="M74.492,200.314c1.625-2.657,4.357-3.164,6.9-3.687a54.188,54.188,0,0,1,10.145-1.148c3.815-.06,4.7-.993,4.8-4.861a42.341,42.341,0,0,0-1.032-9.606c-2.976-14.648,2.79-26.667,11.575-37.733a7.475,7.475,0,0,1,1.188-1.09c.579-.47,1.286-.83,1.923-.3a1.875,1.875,0,0,1,.5,1.418,22.438,22.438,0,0,1-.588,3.171,49.811,49.811,0,0,0,1.846,28.59,30.226,30.226,0,0,1,1.762,14.76c-.432,3.015-.584,6.075-.811,9.115A4.346,4.346,0,0,0,116.44,204c1.925.428,3.866.79,5.814,1.1,3.383.542,5.424,2.706,6.607,5.679,1.662,4.187-.737,7.137-5.242,6.435-2.467-.386-4.875-1.148-7.3-1.76-5-1.26-6.2-.116-5.14,5,.216,1.051.683,2.05.862,3.106.6,3.513-.635,4.687-4.159,3.864a14.946,14.946,0,0,1-9.827-6.97,56.175,56.175,0,0,1-3.666-7.174c-2.162-5.217-5.954-8.255-11.368-9.752-2.841-.786-6.07-.821-8.525-3.213" transform="translate(436.684 1343.069)" fill="#009289"/>
    <path id="Tracciato_5" data-name="Tracciato 5" d="M140.157,52.108c6.837-4.729,12.865-8.781,20.662-8.841a8.981,8.981,0,0,0,2.141-.065c1.623-.416,1.967-1.423.965-2.778a15.562,15.562,0,0,0-4.447-3.859,16.836,16.836,0,0,1-3.857-2.925c7.734-1.79,15.032-1.269,21.537,3.8a20.394,20.394,0,0,1,6.27,7.29,5.12,5.12,0,0,0,5.505,3.306,27.483,27.483,0,0,1,5.375.135c2.66.381,4.561,2.42,4.371,4.668-.225,2.676-2.211,3.55-4.538,3.627-2.869.093-5.745-.063-8.616-.046-6.061.037-6.8.628-6.83,6.853-.033,7.358.144,14.72.449,22.071a36.68,36.68,0,0,1-2.9,16.264,10.061,10.061,0,0,1-2.622,4.022c-1.167.958-2.436,1.081-2.82-.711a40.79,40.79,0,0,1-.7-5.858c-.2-3.1-.686-6.161-2.869-8.5-3.764-4.026-5.028-9.006-5.814-14.195-.458-3.013-.881-6.047-1.051-9.085a8.069,8.069,0,0,0-4.2-7.037c-2.332-1.358-4.6-2.69-5.819-5.366-.63-1.393-2.264-1.565-3.755-1.655a15.2,15.2,0,0,1-6.444-1.118" transform="translate(523.674 1198.774)" fill="#009289"/>
    <path id="Tracciato_6" data-name="Tracciato 6" d="M42.129,130.768c-1.558-.109-2.09-1.137-2.648-2-5.847-9.06-11.012-18.445-13.644-29.015-1.665-6.686-2.511-13.326,1.923-20.009C18.205,78.285,8.069,81.986,0,73.668c4.273,0,7.167-1.741,9.855-3.794,6.386-4.875,13.2-6,20.676-2.811,2.627,1.121,5.359,1.992,7.993,3.1,3.315,1.395,6.581,2.671,10.343,2.271a6.388,6.388,0,0,1,6.126,2.643c1.69,2.341,1.137,4.1-1.616,4.752a22.816,22.816,0,0,1-3.206.277c-3.878.342-4.266.656-3.71,4.624.818,5.847,2.092,11.619,2.3,17.559a58.259,58.259,0,0,1-3.613,23.187c-.744,1.937-1.313,4.08-3.018,5.293" transform="translate(338 1241.913)" fill="#009289"/>
    <path id="Tracciato_8" data-name="Tracciato 8" d="M253.906,148.947c-2.111-.842-2.088-2.722-2.518-4.147-1.985-6.581-4.715-12.7-9.167-18.063a24.733,24.733,0,0,1-5.252-11.666c-1.932-11.489-10.089-15.064-20.37-16.673,2.418-3.259,6.1-3.5,9.392-4.533,1.107-.349,2.827.16,3.155-1.4.353-1.678-1.223-2.439-2.341-3.271-1.6-1.195-3.566-1.62-5.387-2.357A34.577,34.577,0,0,1,210.8,80.675c-.521-.474-1.086-1.1-.525-1.834a1.934,1.934,0,0,1,1.3-.67c10.689-.381,20.7,1.474,28.929,9,1.058.967,2.027,2.027,3.045,3.038,4.4,4.366,9.25,7.862,15.627,8.774,1.685.242,3.768.632,3.743,3.064-.023,2.16-1.678,3.02-3.445,3.6-.842.277-1.758.321-2.618.546-3.336.876-4.754,2.529-5.084,6.021a23.854,23.854,0,0,0,.646,6.93c1.537,7.73,3.2,15.45,3.02,23.392-.051,2.208.26,4.6-1.53,6.409" transform="translate(616.25 1258.948)" fill="#009289"/>
    <path id="Tracciato_9" data-name="Tracciato 9" d="M49.191,188.564c1.432,0,2.871-.081,4.3.014,6.839.46,12.454,3.05,15.969,9.273.7,1.246,1.66,2.35,2.334,3.608,2.613,4.889,6.391,7.49,12.177,6.856,1.855-.2,4.591-.432,5.049,1.86.518,2.6-2.355,2.58-4.078,3.192-6.1,2.167-6.214,2.262-6.323,8.8-.093,5.556-.121,11.112-.191,16.668a19.106,19.106,0,0,1-.149,2.683c-.246,1.562-.2,3.515-1.906,4.147-2.1.779-3.155-1.125-4.294-2.448-5.751-6.681-7.974-14.69-8.6-23.257-.319-4.336-.242-4.431-4.5-4.594a39.569,39.569,0,0,1-13.525-3.108c-1.339-.546-2.957-1.058-3.187-2.576-.246-1.625,1.369-2.341,2.553-3.1,1.809-1.158,3.743-2.139,5.463-3.413,2.35-1.741,2.327-2.8.014-4.529-1.862-1.39-3.9-2.548-5.74-3.959a11.206,11.206,0,0,1-2.536-2.75c-1.348-2.064-.714-3.217,1.8-3.555a8.282,8.282,0,0,1,1.074-.053c1.432,0,2.866,0,4.3,0v.244" transform="translate(392.742 1404.929)" fill="#009289"/>
    <path id="Tracciato_11" data-name="Tracciato 11" d="M28.451,34.987c-7.46-10.919-5.075-20.342,1.632-29.036A14.919,14.919,0,0,1,44.489.157a1.568,1.568,0,0,1-1.327,1.811c-5.235,1.662-5.405,6.147-3.836,10.594a52.43,52.43,0,0,0,5.01,10.087c2.455,3.968,3.124,7.834.849,12.158-1.46,2.773-1.058,3.183,2.195,3.4,1.788.116,3.582.139,5.366.288a5.81,5.81,0,0,1,4.763,3.076c1.683,2.971.581,5.331-2.815,5.786A19.515,19.515,0,0,1,45.2,46.122a17.506,17.506,0,0,0-11.549-.488,18.778,18.778,0,0,1-15.936-2.385c-3.933-2.45-7.386-5.645-12.7-7.637,7.955-2.683,15.092-2.52,23.443-.625" transform="translate(344.634 1155.452)" fill="#009289"/>
    <path id="Tracciato_13" data-name="Tracciato 13" d="M105.279,108c6.814.167,11.254-3.8,17.515-4.819-2.415-3.129-2.755-6.377-2.485-9.736.342-4.271-1.379-7.214-5.454-8.855-1.425-.574-3.1-.974-4.017-2.49,7.6-3.968,18.38-.951,22.88,6.393,2.4,3.92,3.2,8.316,3.78,12.782.7,5.307,1.116,5.714,6.609,6.514a8.719,8.719,0,0,1,5.321,2.283,3.551,3.551,0,0,1,.874,3.954,2.533,2.533,0,0,1-3.129,1.495c-5.205-1.441-9.8.707-14.586,2.039-5.228,1.458-10.257,1.572-14.414-2.932-1.469-1.59-3.652-2.213-5.789-2.646A13.453,13.453,0,0,1,105.279,108" transform="translate(477.469 1261.887)" fill="#009289"/>
  </g>
</svg>
