<svg xmlns="http://www.w3.org/2000/svg" width="430.216" height="342.401" viewBox="0 0 430.216 342.401">
  <g id="uccelli-sx" transform="translate(-1239.142 -1364.589)">
    <path id="Tracciato_3" data-name="Tracciato 3" d="M348.1,147.878c-9.209-2.031-17.368-4.905-21.943-13.5-.9-1.689-2.392-1.9-3.9-2.373q-7.4-2.311-14.767-4.7a3.846,3.846,0,0,1-.95-.68c-.033-1.212.879-1.589,1.715-1.953a34.658,34.658,0,0,1,3.351-1.268c5.985-1.91,6.024-1.91,4.287-7.832-1.421-4.85-2.941-9.668-4.42-14.5-2.877-9.415-1.475-18.416,2.687-27.121.535-1.119.957-2.513,2.776-2.8a5.273,5.273,0,0,1,.216,3.428c-1.233,7.136.532,13.753,3.558,20.1a78.9,78.9,0,0,1,7.041,24.822c.382,3.2.506,3.456,3.953,3.537a14.238,14.238,0,0,1,5.449,1.066c2.408,1.057,3.117,3.071,1.528,5.1-2.549,3.254-1.851,6.123.383,9.059a46.306,46.306,0,0,0,6.37,6.6c.876.772,2.071,1.256,2.665,3.028" transform="translate(932.604 1293.447)" fill="#009289"/>
    <path id="Tracciato_7" data-name="Tracciato 7" d="M460.7,212.687c-2.867-.339-5.617-.5-7.9,1.779-1.043,1.043-2.518.788-3.8.439a10.442,10.442,0,0,1-4.979-2.421,8.678,8.678,0,0,0-7.107-2.889c-.9.045-2.067.085-2.276-1.1-.19-1.081.774-1.613,1.618-2.029.952-.47,1.957-.834,2.914-1.292,3.727-1.788,4.4-2.848,3.63-6.909-.687-3.653-1.611-7.271-2.6-10.858a12.176,12.176,0,0,1,.532-7.822,72.591,72.591,0,0,1,9.472-16.6c.744-1.019,1.81-2.691,3.071-2.024,1.589.841.005,2.352-.326,3.468a39.114,39.114,0,0,0-.345,21.287,61.092,61.092,0,0,1,2.131,11.34c.378,5.907,3.13,9.694,8.706,11.556a20.449,20.449,0,0,1,3.224,1.546c.456.25.936.731.674,1.285a2.045,2.045,0,0,1-1.123.991c-1.82.546-3.7.155-5.516.252" transform="translate(1025.728 1358.646)" fill="#009289"/>
    <path id="Tracciato_12" data-name="Tracciato 12" d="M404.419,151.4c.364-.991,1.155-1.105,1.827-1.43,1.96-.945,2.415-2.133,1.719-4.171a11.214,11.214,0,0,0-1.649-2.672c-2.877-4.162-4.458-12.406.408-17.948.356-.408.6-1.017,1.5-.905a27.385,27.385,0,0,0,1.223,7.477,9.627,9.627,0,0,0,2.148,3.995c1.453,1.5,1.846,3.529,2.518,5.408,1.7,4.762,2.392,5.038,7.107,3.074a11.175,11.175,0,0,0,4.763-3.546c.39-.513.87-.959,1.428-1.563.162,3.439-3.945,8.453-9.415,11.755.793.99,2.32.781,3.278,2.218-2.952.361-5.737.63-8.5,1.06-3.307.513-5.872-.9-8.363-2.751" transform="translate(1003.179 1332.068)" fill="#009289"/>
    <path id="Tracciato_4" data-name="Tracciato 4" d="M566.74,258.418c1.592,4.71.927,9.352-.017,13.915a35.809,35.809,0,0,0,1.088,19.278c.706,2.071,1.663,4.242.941,6.839-2.82.169-4.656-1.491-6.252-3.421-3.831-4.637-5.7-10.19-7.116-15.912a20.969,20.969,0,0,1-.39-8.725,52.469,52.469,0,0,0,.408-5.979c.1-1.807-.922-3.116-1.665-4.67-1.768-3.7-4.879-4.453-8.276-5.117a9.949,9.949,0,0,1-1.888-.648c-.622-.263-1.2-.646-1.25-1.4-.045-.77.506-1.145,1.126-1.461,1.193-.608,3.193-.254,3.112-2.418-.071-1.881-1.6-2.66-2.948-3.5-1.808-1.128-3.7-2.124-5.49-3.275a18.153,18.153,0,0,1-7.549-9.532c-.3-.872-.58-1.924.243-2.629.846-.724,1.777-.176,2.57.3a15.083,15.083,0,0,1,3.311,2.2c3.415,3.587,7.769,5.541,12.216,7.368,1.846.758,3.686,1.541,5.567,2.2a14.371,14.371,0,0,1,8,6.263,11.981,11.981,0,0,0,5.872,4.608,46.578,46.578,0,0,1,4.917,2.639,1.9,1.9,0,0,1,.8,1.275c.083.838-.763,1.13-1.337,1.2-1.444.169-2.915.1-4.371.188a9.009,9.009,0,0,0-1.62.425" transform="translate(1095.285 1408.528)" fill="#009289"/>
    <path id="Tracciato_10" data-name="Tracciato 10" d="M545.3,215.262c-7.5.62-14.422,1.817-21.463,1.238a2.113,2.113,0,0,1-.784-.13c-3.967-2.1-8.309-2.61-12.679-3.012-.541-.05-1.1-.218-1.135-.869a1.307,1.307,0,0,1,.824-1.252c2.052-.927,4.111-1.843,6.19-2.706,4.024-1.67,4.668-2.577,4.212-6.927a52.89,52.89,0,0,0-1.245-7.06,9.259,9.259,0,0,1,2.814-9.415,42.683,42.683,0,0,1,10.019-7.162,3.471,3.471,0,0,1,3.378-.394c.622,1.162-.454,1.653-.893,2.383-2.556,4.257-3.755,8.625-2.221,13.662,1.232,4.048,2.148,8.271,1.592,12.572a2.666,2.666,0,0,0,2.069,3.288c1.382.461,2.765.921,4.159,1.342a7.9,7.9,0,0,1,5.162,4.442" transform="translate(1079.993 1370.621)" fill="#009289"/>
    <path id="Tracciato_14" data-name="Tracciato 14" d="M538.3,101.731a8.4,8.4,0,0,1,4.508-.838c5.639-.05,8.6,2.2,10.143,7.634a7.009,7.009,0,0,1,.459,1.933c-.059,3.28,1.164,5.344,4.746,5.5a3.678,3.678,0,0,1,1.781.8,1.885,1.885,0,0,1,.734,2.126,1.489,1.489,0,0,1-1.859,1.13c-3.06-.984-5.718.51-8.5,1.2-2.627.651-5.022.456-7.029-1.575-1.746-1.765-4.63-1.275-6.366-3.169,1.078-1.216,2.711-1.04,3.978-1.734a31.087,31.087,0,0,1,3.952-1.558c.366-1.287-.829-2.1-.675-3.152.6-4.135-1.054-6.893-5.869-8.288" transform="translate(1100.114 1315.073)" fill="#009289"/>
  </g>
</svg>
