<svg id="Logo_SOka_Gakkai" data-name="Logo SOka Gakkai" xmlns="http://www.w3.org/2000/svg" xmlns:xlink="http://www.w3.org/1999/xlink" width="326" height="63.233" viewBox="0 0 326 63.233">
  <defs>
    <clipPath id="clip-path">
      <rect id="Rettangolo_30" data-name="Rettangolo 30" width="326" height="63.233" fill="none"/>
    </clipPath>
  </defs>
  <g id="Raggruppa_83" data-name="Raggruppa 83" transform="translate(0 0)" clip-path="url(#clip-path)">
    <path id="Tracciato_43" data-name="Tracciato 43" d="M21.837,32.034a4.829,4.829,0,0,0,4.387-1.3,4.882,4.882,0,0,0,1.432-3.607,6.684,6.684,0,0,0,3.456-1.842,7.528,7.528,0,0,0,1.647-7.6c3.669-3.665,3.428-9.322-.293-13.041L32.35,4.8a23.16,23.16,0,0,1-2.624,19.429,24.487,24.487,0,0,1-8.094,7.549Z" transform="translate(21.502 4.617)" fill="#74623d"/>
    <path id="Tracciato_44" data-name="Tracciato 44" d="M13.378,16.731a4.829,4.829,0,0,1,1.3-4.389,4.911,4.911,0,0,1,3.605-1.434,6.7,6.7,0,0,1,1.842-3.456,7.531,7.531,0,0,1,7.6-1.645c3.669-3.667,9.324-3.43,13.041.293l-.156.118a23.145,23.145,0,0,0-19.423,2.62,24.5,24.5,0,0,0-7.551,8.1Z" transform="translate(13.202 3.161)" fill="#74623d"/>
    <path id="Tracciato_45" data-name="Tracciato 45" d="M18.226,27.706a4.822,4.822,0,0,0,4.026,2.183,4.893,4.893,0,0,0,3.559-1.533,6.682,6.682,0,0,0,3.749,1.139A7.533,7.533,0,0,0,36.1,25.286c5.186,0,9.019-4.169,9.019-9.43l-.2.026A23.144,23.144,0,0,1,29.33,27.762a24.526,24.526,0,0,1-11.065-.383Z" transform="translate(18.116 15.761)" fill="#74623d"/>
    <path id="Tracciato_46" data-name="Tracciato 46" d="M18.226,11a4.841,4.841,0,0,1,4.026-2.183,4.9,4.9,0,0,1,3.559,1.535A6.721,6.721,0,0,1,29.56,9.215,7.537,7.537,0,0,1,36.1,13.424c5.186,0,9.019,4.169,9.019,9.432l-.2-.026A23.144,23.144,0,0,0,29.33,10.948a24.429,24.429,0,0,0-11.065.383Z" transform="translate(18.116 8.763)" fill="#74623d"/>
    <path id="Tracciato_47" data-name="Tracciato 47" d="M13.378,21.837a4.829,4.829,0,0,0,1.3,4.389,4.909,4.909,0,0,0,3.605,1.432,6.656,6.656,0,0,0,1.846,3.454,7.528,7.528,0,0,0,7.6,1.649c3.669,3.667,9.324,3.428,13.041-.293l-.156-.118a23.154,23.154,0,0,1-19.423-2.624,24.468,24.468,0,0,1-7.551-8.092Z" transform="translate(13.202 21.504)" fill="#74623d"/>
    <path id="Tracciato_48" data-name="Tracciato 48" d="M21.837,13.378a4.837,4.837,0,0,1,5.818,4.9,6.7,6.7,0,0,1,3.456,1.846,7.531,7.531,0,0,1,1.647,7.6c3.669,3.667,3.428,9.324-.293,13.043l-.116-.156a23.151,23.151,0,0,0-2.624-19.425,24.487,24.487,0,0,0-8.094-7.549Z" transform="translate(21.502 13.204)" fill="#74623d"/>
    <path id="Tracciato_49" data-name="Tracciato 49" d="M11,18.228a4.833,4.833,0,0,0-2.181,4.018,4.884,4.884,0,0,0,1.533,3.563,6.729,6.729,0,0,0-1.135,3.749A7.527,7.527,0,0,0,13.423,36.1c0,5.186,4.167,9.017,9.428,9.017l-.026-.2A23.144,23.144,0,0,1,10.945,29.33a24.52,24.52,0,0,1,.381-11.067Z" transform="translate(8.764 18.118)" fill="#74623d"/>
    <path id="Tracciato_50" data-name="Tracciato 50" d="M27.705,18.228a4.829,4.829,0,0,1,2.187,4.018,4.9,4.9,0,0,1-1.535,3.563,6.72,6.72,0,0,1,1.135,3.749A7.534,7.534,0,0,1,25.285,36.1c0,5.186-4.167,9.017-9.43,9.017l.028-.2A23.144,23.144,0,0,0,27.759,29.33a24.535,24.535,0,0,0-.379-11.067Z" transform="translate(15.76 18.118)" fill="#74623d"/>
    <path id="Tracciato_51" data-name="Tracciato 51" d="M16.73,13.378a4.827,4.827,0,0,0-4.385,1.3,4.9,4.9,0,0,0-1.436,3.6,6.709,6.709,0,0,0-3.452,1.846,7.527,7.527,0,0,0-1.649,7.6c-3.669,3.667-3.43,9.324.287,13.043l.124-.156A23.146,23.146,0,0,1,8.842,21.187a24.467,24.467,0,0,1,8.094-7.549Z" transform="translate(3.16 13.204)" fill="#74623d"/>
    <path id="Tracciato_52" data-name="Tracciato 52" d="M32.032,21.837a4.813,4.813,0,0,1-1.3,4.389,4.9,4.9,0,0,1-3.6,1.432,6.714,6.714,0,0,1-1.846,3.454,7.529,7.529,0,0,1-7.6,1.649c-3.671,3.667-9.33,3.428-13.049-.293L4.8,32.35a23.164,23.164,0,0,0,19.427-2.624,24.483,24.483,0,0,0,7.547-8.092Z" transform="translate(4.615 21.504)" fill="#74623d"/>
    <path id="Tracciato_53" data-name="Tracciato 53" d="M26.885,11a4.834,4.834,0,0,0-4.022-2.183A4.9,4.9,0,0,0,19.3,10.351a6.707,6.707,0,0,0-3.745-1.135,7.541,7.541,0,0,0-6.538,4.207C3.832,13.424,0,17.594,0,22.856l.193-.026A23.145,23.145,0,0,1,15.784,10.948a24.48,24.48,0,0,1,11.061.383Z" transform="translate(0 8.763)" fill="#74623d"/>
    <path id="Tracciato_54" data-name="Tracciato 54" d="M26.885,27.706a4.825,4.825,0,0,1-4.022,2.183A4.905,4.905,0,0,1,19.3,28.356a6.678,6.678,0,0,1-3.745,1.139,7.539,7.539,0,0,1-6.538-4.209C3.832,25.286,0,21.116,0,15.856l.193.026a23.145,23.145,0,0,0,15.591,11.88,24.512,24.512,0,0,0,11.061-.383Z" transform="translate(0 15.761)" fill="#74623d"/>
    <path id="Tracciato_55" data-name="Tracciato 55" d="M32.032,16.731a4.813,4.813,0,0,0-1.3-4.389,4.9,4.9,0,0,0-3.6-1.434,6.735,6.735,0,0,0-1.846-3.456,7.531,7.531,0,0,0-7.6-1.645C14.021,2.141,8.362,2.378,4.643,6.1l.158.118a23.154,23.154,0,0,1,19.427,2.62,24.516,24.516,0,0,1,7.547,8.1Z" transform="translate(4.615 3.161)" fill="#74623d"/>
    <path id="Tracciato_56" data-name="Tracciato 56" d="M16.73,32.034a4.827,4.827,0,0,1-4.385-1.3,4.909,4.909,0,0,1-1.436-3.607,6.687,6.687,0,0,1-3.452-1.842,7.525,7.525,0,0,1-1.649-7.6C2.14,14.021,2.379,8.364,6.1,4.645L6.22,4.8A23.155,23.155,0,0,0,8.842,24.226a24.467,24.467,0,0,0,8.094,7.549Z" transform="translate(3.16 4.617)" fill="#74623d"/>
    <path id="Tracciato_57" data-name="Tracciato 57" d="M27.705,26.883a4.824,4.824,0,0,0,2.187-4.018A4.927,4.927,0,0,0,28.357,19.3a6.7,6.7,0,0,0,1.135-3.741,7.53,7.53,0,0,0-4.207-6.54C25.285,3.828,21.117,0,15.855,0l.028.193A23.138,23.138,0,0,1,27.759,15.778a24.527,24.527,0,0,1-.379,11.067Z" transform="translate(15.76 0)" fill="#74623d"/>
    <path id="Tracciato_58" data-name="Tracciato 58" d="M11,26.883a4.828,4.828,0,0,1-2.181-4.018A4.91,4.91,0,0,1,10.35,19.3a6.706,6.706,0,0,1-1.139-3.741,7.534,7.534,0,0,1,4.211-6.54C13.423,3.828,17.591,0,22.851,0l-.026.193a23.137,23.137,0,0,0-11.88,15.585,24.512,24.512,0,0,0,.381,11.067Z" transform="translate(8.764 0)" fill="#74623d"/>
    <path id="Tracciato_59" data-name="Tracciato 59" d="M38.39,62.454V.7A.7.7,0,0,0,37,.7V62.454a.7.7,0,0,0,1.39,0" transform="translate(36.777 0.038)" fill="#74623d"/>
    <path id="Tracciato_60" data-name="Tracciato 60" d="M282.356,26.912v-.758c-3.133,0-3.585-.616-3.585-4.231V10.169c0-3.615.453-4.193,3.585-4.193v-.76H272.165v.76c3.135,0,3.587.578,3.587,4.193V21.923c0,3.615-.453,4.231-3.587,4.231v.758ZM262.2,18.053h-7.888l3.924-8.716Zm-8.492,1.338h9.132l1.813,4.014c.905,1.99.189,2.75-2.943,2.75v.758h10.452v-.758c-3.133,0-3.32-.616-4.49-3.147L259.334,4.6h-.491l-8.3,18.408c-1.17,2.53-1.36,3.147-4.53,3.147v.758h8.831v-.758c-3.133,0-3.848-.8-2.943-2.75ZM231.6,14.328,238.21,8.9c2.642-2.171,4-2.929,6.907-2.929v-.76h-8.758v.76c2.379,0,2.227.977-.15,2.929l-7.739,6.329V10.169c0-3.615.453-4.193,3.587-4.193v-.76H221.867v.76c3.133,0,3.585.578,3.585,4.193V21.923c0,3.615-.453,4.231-3.585,4.231v.758h10.191v-.758c-3.135,0-3.587-.616-3.587-4.231V16.9l.983-.76L239,24.057c1.509,1.228,1.055,2.1-1.436,2.1v.758h10.606v-.758a10.313,10.313,0,0,1-4.869-2.1Zm-26.2,0L212,8.9c2.644-2.171,4-2.929,6.909-2.929v-.76h-8.758v.76c2.379,0,2.227.977-.15,2.929l-7.739,6.329V10.169c0-3.615.453-4.193,3.585-4.193v-.76H195.664v.76c3.133,0,3.585.578,3.585,4.193V21.923c0,3.615-.453,4.231-3.585,4.231v.758h10.189v-.758c-3.133,0-3.585-.616-3.585-4.231V16.9l.981-.76,9.549,7.92c1.509,1.228,1.057,2.1-1.434,2.1v.758h10.606v-.758a10.306,10.306,0,0,1-4.869-2.1Zm-19.162,3.725H178.35l3.926-8.716Zm-8.49,1.338h9.132l1.813,4.014c.905,1.99.187,2.75-2.945,2.75v.758H196.2v-.758c-3.133,0-3.322-.616-4.492-3.147L183.371,4.6h-.493l-8.3,18.408c-1.17,2.53-1.36,3.147-4.53,3.147v.758h8.833v-.758c-3.133,0-3.852-.8-2.945-2.75Zm-12.3,1.627c0,3.256-2.943,4.955-6.227,4.955-6.983,0-8.945-5.424-8.945-9.908S152.46,6.012,158.5,6.012c4.227,0,7.172,2.857,8.191,7.557h.754V5.613h-.754a3.691,3.691,0,0,1-1.284,2.062A9.82,9.82,0,0,0,158.385,4.6,11.563,11.563,0,0,0,146.8,16.065a11.563,11.563,0,0,0,11.585,11.463c3.926,0,5.625-1.88,9.814-1.88V22.9c0-3.617.453-4.231,3.585-4.231v-.724H161.9v.724c2.6,0,3.547.8,3.547,2.349M125.1,17.963h-7.968l3.966-8.8Zm-8.576,1.352h9.226l1.828,4.056c.915,2.008.191,2.776-2.973,2.776v.766h10.56v-.766c-3.164,0-3.356-.622-4.536-3.178L122.2,4.374h-.5l-8.387,18.594c-1.182,2.556-1.374,3.178-4.576,3.178v.766h8.921v-.766c-3.164,0-3.888-.8-2.973-2.776ZM95.281,14.2l6.672-5.481c2.668-2.191,4.04-2.957,6.975-2.957V5h-8.843v.768c2.4,0,2.249.985-.154,2.957l-7.814,6.393V10c0-3.651.457-4.235,3.621-4.235V5H85.445v.768c3.164,0,3.621.584,3.621,4.235V21.872c0,3.653-.457,4.275-3.621,4.275v.766H95.738v-.766c-3.164,0-3.621-.622-3.621-4.275V16.795l.991-.768,9.645,8c1.525,1.242,1.069,2.12-1.45,2.12v.766h10.714v-.766a10.406,10.406,0,0,1-4.917-2.12ZM72.95,5.8c6.6,0,9.112,5.625,9.112,10.155S79.547,26.073,72.95,26.073c-6.558,0-9.073-5.587-9.073-10.117S66.392,5.8,72.95,5.8M85.684,15.955c0-6.357-5.719-11.581-12.734-11.581-6.977,0-12.7,5.224-12.7,11.581s5.719,11.579,12.7,11.579c7.015,0,12.734-5.224,12.734-11.579M44.821,25.818c1.22.255,3.049,1.717,5.948,1.717,3.926,0,7.242-2.594,7.242-6.576,0-2.008-1.029-4.126-3.964-5.551l-3.661-1.791c-3.278-1.643-4.612-2.63-4.612-4.528a3.421,3.421,0,0,1,3.7-3.252c4.421,0,5.565,3.47,5.832,6.393h.8V4.193h-.762a3.129,3.129,0,0,1-1.1,1.681,7.306,7.306,0,0,0-4.652-1.5c-3.7,0-6.329,2.413-6.329,5.444,0,2.776,2.02,4.931,4.233,6.028l3.659,1.789c2.63,1.316,4.385,2.74,4.385,4.421,0,2.339-2.06,4.018-4.766,4.018-6.977,0-7.055-6.574-7.055-6.574h-.762v8.036h.762a3.086,3.086,0,0,1,1.107-1.717" transform="translate(42.694 4.168)" fill="#74623d"/>
    <path id="Tracciato_61" data-name="Tracciato 61" d="M278.114,31.2a4,4,0,0,1-4.058-4.072V27.1a3.953,3.953,0,0,1,4.028-4.044,4,4,0,0,1,4.06,4.072v.028a3.953,3.953,0,0,1-4.03,4.044m-.03,1.029a5.1,5.1,0,0,0,5.264-5.1V27.1a5.252,5.252,0,0,0-10.5.028v.028a5.056,5.056,0,0,0,5.234,5.073m-16.939-.169h1.131V23.973l6.648,8.088h.925V22.2h-1.131v7.9l-6.486-7.9h-1.087ZM250.968,28.44l2.353-5.017,2.339,5.017ZM248.1,32.061h1.192l1.22-2.606h5.6l1.2,2.606h1.25l-4.69-9.934h-1.089Zm-3.838,0h1.163V22.2h-1.163Zm-9.749,0h6.957V31.032h-5.795V22.2h-1.162ZM224.338,28.44l2.353-5.017,2.337,5.017Zm-2.867,3.621h1.19l1.22-2.606h5.6l1.206,2.606h1.25l-4.692-9.934h-1.089Zm-5.146,0H217.5V23.227h3.456V22.2h-8.088v1.029h3.456Zm-7.442,0h1.162V22.2h-1.162ZM193.649,28.44,196,23.423l2.339,5.017Zm-2.867,3.621h1.19l1.222-2.606h5.6L200,32.061h1.25l-4.69-9.934h-1.089Zm-5.146,0h1.176V23.227h3.456V22.2H182.18v1.029h3.456Zm-8.925.142c2.044,0,3.513-1.1,3.513-2.79v-.028c0-1.507-1.059-2.311-3.352-2.79-2.265-.467-2.794-.987-2.794-1.918v-.026c0-.889.851-1.593,2.189-1.593a4.63,4.63,0,0,1,2.971,1.071l.678-.859a5.521,5.521,0,0,0-3.619-1.212c-1.956,0-3.382,1.143-3.382,2.692v.028c0,1.621,1.089,2.353,3.456,2.847,2.161.435,2.676.957,2.676,1.872v.028c0,.973-.911,1.677-2.293,1.677a5.012,5.012,0,0,1-3.529-1.394l-.722.818A6.173,6.173,0,0,0,176.71,32.2m-8.249-.142h1.162V22.2h-1.162Zm-8.574-8.833a3.932,3.932,0,0,1,4.265,3.9v.028c0,2.185-1.663,3.874-4.265,3.874h-2.411v-7.8Zm-3.573,8.833h3.573c3.236,0,5.471-2.155,5.471-4.931V27.1c0-2.776-2.235-4.9-5.471-4.9h-3.573Zm-8.468-8.833a3.93,3.93,0,0,1,4.263,3.9v.028c0,2.185-1.661,3.874-4.263,3.874h-2.413v-7.8Zm-3.575,8.833h3.575c3.234,0,5.469-2.155,5.469-4.931V27.1c0-2.776-2.235-4.9-5.469-4.9H144.27Zm-7.587.156c2.572,0,4.293-1.493,4.293-4.369V22.2h-1.161v5.735c0,2.155-1.206,3.254-3.1,3.254-1.956,0-3.146-1.2-3.146-3.324V22.2H132.4v5.735a3.946,3.946,0,0,0,4.279,4.283m-8.145-2.945v.03c0,1.1-.971,1.761-2.53,1.761h-3.456V27.58h3.25c1.795,0,2.736.62,2.736,1.691m-.574-4.439c0,1.157-.971,1.763-2.367,1.763h-3.045V23.2h3.133c1.47,0,2.279.634,2.279,1.605Zm-6.558,7.228h4.572c2.251,0,3.737-1,3.737-2.69v-.028c0-1.354-.985-2.03-2.205-2.381a2.393,2.393,0,0,0,1.631-2.285v-.026a2.142,2.142,0,0,0-.662-1.579,3.889,3.889,0,0,0-2.69-.873h-4.383Zm-13.19-.859a4,4,0,0,1-4.058-4.072V27.1a3.953,3.953,0,0,1,4.028-4.044,4,4,0,0,1,4.06,4.072v.028a3.953,3.953,0,0,1-4.03,4.044m-.03,1.029a5.1,5.1,0,0,0,5.264-5.1V27.1a5.252,5.252,0,0,0-10.5.028v.028a5.056,5.056,0,0,0,5.234,5.073m-11.426-.169h1.176V23.227h3.456V22.2H93.3v1.029h3.456Zm-10.307.156c2.572,0,4.293-1.493,4.293-4.369V22.2H89.583v5.735c0,2.155-1.206,3.254-3.1,3.254-1.956,0-3.147-1.2-3.147-3.324V22.2H82.171v5.735a3.947,3.947,0,0,0,4.281,4.283m-11.471-.156h1.176V23.227h3.456V22.2H71.526v1.029h3.456Zm-7.44,0H68.7V22.2H67.542Zm-7.456,0h1.176V23.227h3.456V22.2H56.631v1.029h3.456Zm-8.927.142c2.046,0,3.515-1.1,3.515-2.79v-.028c0-1.507-1.059-2.311-3.354-2.79-2.263-.467-2.794-.987-2.794-1.918v-.026c0-.889.853-1.593,2.191-1.593a4.638,4.638,0,0,1,2.971,1.071l.676-.859a5.512,5.512,0,0,0-3.617-1.212c-1.956,0-3.382,1.143-3.382,2.692v.028c0,1.621,1.087,2.353,3.456,2.847,2.161.435,2.676.957,2.676,1.872v.028c0,.973-.911,1.677-2.3,1.677a5.011,5.011,0,0,1-3.527-1.394l-.722.818A6.172,6.172,0,0,0,51.159,32.2m-8.249-.142h1.162V22.2H42.91Z" transform="translate(42.652 21.897)" fill="#002e3d"/>
  </g>
</svg>
